# xmcd
#
# Track frame offsets:
#	150
#	13287
#	31319
#	41562
#	59445
#	68019
#	88477
#	112955
#	126304
#	149506
#	162744
#	175792
#	196264
#	211018
#
# Disc length: 3015 seconds
#
# Revision: 0
# Processed by: cddbd v1.5.2PL0 Copyright (c) Steve Scherf et al.
# Submitted via: EasyCDDAExtractor 10.0.2.1
#
DISCID=ce0bc50e
DTITLE=The Hayes Family - Celebrate His Love
DYEAR=2002
DGENRE=Gospel
TTITLE0=Hallelujah To The Risen Lamb
TTITLE1=Oh Glorious Love
TTITLE2=His Marvelous Love
TTITLE3=Meet Me There
TTITLE4=Have You Heard The Good News
TTITLE5=He Will Be There
TTITLE6=Just Keep On Praying
TTITLE7=Hallelujuh Chorus
TTITLE8=Willingly
TTITLE9=I Love Him So
TTITLE10=Heavens Joy Awaits
TTITLE11=We Are So Blessed
TTITLE12=I Know He Cares
TTITLE13=Son Of Grace
EXTD=
EXTT0=
EXTT1=
EXTT2=
EXTT3=
EXTT4=
EXTT5=
EXTT6=
EXTT7=
EXTT8=
EXTT9=
EXTT10=
EXTT11=
EXTT12=
EXTT13=
PLAYORDER=
